<?xml version="1.0" encoding="utf-8"?>
<!-- Generator: Adobe Illustrator 24.3.0, SVG Export Plug-In . SVG Version: 6.00 Build 0)  -->
<svg version="1.1" id="Layer_1" xmlns="http://www.w3.org/2000/svg" xmlns:xlink="http://www.w3.org/1999/xlink" x="0px" y="0px"
	 viewBox="0 0 38.32 18.85" style="enable-background:new 0 0 38.32 18.85;" xml:space="preserve">
<style type="text/css">
	.st0{fill:#FFFFFF;}
</style>
<path class="st0" d="M-1.13,66.98c-0.13-0.01-0.28-0.01-0.41-0.01c-6.05,0-12.2-1.2-17.8-3.47c-5.76-2.33-11.13-5.86-15.54-10.2
	c-4.44-4.37-8.07-9.7-10.5-15.42c-2.44-5.72-3.76-12.06-3.82-18.34c-0.06-6.27,1.15-12.66,3.5-18.48
	c2.34-5.82,5.91-11.27,10.33-15.77c4.41-4.5,9.81-8.18,15.63-10.65c5.8-2.48,12.23-3.83,18.6-3.89l0.45,0
	c6.22,0,12.54,1.23,18.28,3.54c5.9,2.37,11.43,5.99,15.99,10.46c4.55,4.45,8.29,9.93,10.82,15.84c2.51,5.86,3.87,12.34,3.95,18.75
	l-1.32,0.01c-0.04-6.19-1.36-12.5-3.81-18.23c-2.45-5.74-6.09-11.07-10.53-15.42c-4.44-4.35-9.82-7.87-15.57-10.18
	c-5.58-2.25-11.73-3.45-17.77-3.45l-0.46,0c-6.19,0.06-12.45,1.37-18.1,3.78c-5.63,2.4-10.89,5.98-15.2,10.36
	C-38.72-9.4-42.2-4.1-44.48,1.56c-2.28,5.65-3.46,11.86-3.41,17.97c0.05,6.08,1.34,12.25,3.72,17.84
	c2.37,5.58,5.9,10.76,10.21,14.99c4.29,4.22,9.52,7.65,15.11,9.91c5.43,2.21,11.42,3.38,17.33,3.38l0.38,0
	C4.88,65.6,10.95,64.34,16.44,62c5.48-2.32,10.59-5.79,14.79-10.05c4.15-4.22,7.53-9.36,9.77-14.88c2.22-5.46,3.37-11.45,3.33-17.34
	l1.32-0.01c0.04,6.09-1.15,12.26-3.43,17.86c-2.29,5.66-5.77,10.95-10.06,15.31c-4.3,4.37-9.56,7.95-15.21,10.34
	C11.3,65.63,5.05,66.93-1.13,66.98z"/>
<path class="st0" d="M-1.53,64.27c-5.69,0-11.49-1.13-16.77-3.26c-5.41-2.18-10.48-5.5-14.67-9.61c-4.19-4.11-7.62-9.14-9.91-14.54
	c-2.31-5.42-3.56-11.4-3.61-17.31c-0.06-5.92,1.08-11.95,3.3-17.44c2.21-5.49,5.57-10.64,9.74-14.89
	c4.18-4.26,9.28-7.74,14.75-10.07c5.5-2.35,11.57-3.62,17.56-3.68l0.39,0c5.91,0,11.9,1.15,17.32,3.34
	c5.57,2.24,10.8,5.66,15.12,9.88c4.32,4.23,7.86,9.4,10.23,14.96c2.38,5.54,3.67,11.66,3.74,17.72l-1.32,0.01
	c-0.07-5.88-1.33-11.83-3.64-17.21c-2.31-5.41-5.75-10.43-9.94-14.54c-4.19-4.1-9.27-7.42-14.69-9.6
	c-5.25-2.12-11.04-3.24-16.74-3.24l-0.46,0c-5.84,0.06-11.74,1.3-17.06,3.58c-5.34,2.28-10.3,5.66-14.33,9.78
	c-4.05,4.13-7.32,9.13-9.46,14.46c-2.15,5.32-3.26,11.17-3.2,16.93c0.06,5.74,1.27,11.56,3.51,16.81
	c2.24,5.25,5.56,10.13,9.62,14.11c4.05,3.98,8.97,7.2,14.24,9.33c5.11,2.07,10.79,3.16,16.43,3.16l0.24,0
	c5.66-0.05,11.38-1.24,16.54-3.44c5.16-2.19,9.97-5.46,13.9-9.47c3.92-3.99,7.1-8.84,9.19-14.01c2.08-5.12,3.16-10.75,3.12-16.31
	l1.32-0.01c0.04,5.73-1.07,11.54-3.22,16.82c-2.17,5.35-5.44,10.34-9.47,14.43c-4.05,4.12-9,7.49-14.32,9.76
	c-5.32,2.27-11.21,3.5-17.05,3.55H-1.53z"/>
<path class="st0" d="M-1.53,61.56c-5.34,0-10.78-1.06-15.73-3.05c-5.08-2.05-9.85-5.16-13.79-9.02c-3.94-3.86-7.17-8.59-9.33-13.66
	c-2.17-5.07-3.35-10.69-3.41-16.27c-0.06-5.56,1.01-11.24,3.09-16.4c2.08-5.18,5.25-10.03,9.16-14.02c3.9-3.99,8.7-7.27,13.88-9.48
	c5.16-2.21,10.87-3.41,16.52-3.47l0.38,0c5.56,0,11.19,1.08,16.28,3.14c5.24,2.1,10.17,5.32,14.24,9.29
	c4.07,3.98,7.41,8.85,9.65,14.09c2.25,5.24,3.46,11.01,3.53,16.69l-1.32,0.02c-0.07-5.52-1.26-11.11-3.42-16.17
	c-2.17-5.09-5.41-9.81-9.36-13.66c-3.94-3.85-8.71-6.97-13.81-9.01c-4.9-2.01-10.38-3.07-15.84-3.07l-0.31,0
	c-5.48,0.06-11.02,1.22-16.02,3.36c-4.99,2.13-9.65,5.3-13.45,9.19c-3.79,3.87-6.86,8.57-8.88,13.59c-2.01,4.98-3.05,10.47-3,15.89
	c0.06,5.39,1.2,10.85,3.3,15.77c2.09,4.9,5.21,9.48,9.04,13.24c3.79,3.72,8.41,6.74,13.36,8.74c4.78,1.93,10.11,2.96,15.4,2.96
	l0.24,0c5.31-0.05,10.67-1.17,15.51-3.24c4.85-2.06,9.35-5.13,13.03-8.88c3.67-3.73,6.64-8.27,8.6-13.13
	c1.95-4.81,2.95-10.09,2.92-15.27l1.32-0.02c0.04,5.37-1,10.83-3.01,15.78c-2.03,5.01-5.1,9.7-8.88,13.56
	c-3.81,3.88-8.46,7.05-13.45,9.17c-4.99,2.13-10.53,3.29-16.02,3.35L-1.53,61.56z"/>
<path class="st0" d="M-1.11,58.87c-0.14-0.02-0.28-0.02-0.41-0.02c-4.99,0-10.08-0.99-14.69-2.85c-4.78-1.92-9.24-4.84-12.91-8.44
	c-3.69-3.62-6.71-8.04-8.74-12.79c-2.04-4.74-3.14-10.01-3.2-15.23c-0.05-5.25,0.95-10.56,2.89-15.37c1.95-4.85,4.91-9.4,8.57-13.13
	c3.69-3.77,8.18-6.84,13-8.89c4.83-2.08,10.18-3.2,15.49-3.27l0.45,0c5.16,0,10.41,1.01,15.18,2.92c4.93,1.98,9.56,4.99,13.37,8.71
	c3.81,3.72,6.95,8.29,9.06,13.22c2.1,4.89,3.25,10.3,3.33,15.65l-1.32,0.02c-0.08-5.17-1.19-10.41-3.22-15.14
	c-2.04-4.77-5.08-9.19-8.77-12.78c-3.69-3.6-8.16-6.51-12.94-8.43c-4.63-1.86-9.7-2.85-14.68-2.85l-0.45,0
	c-5.13,0.06-10.31,1.15-14.99,3.16c-4.66,1.99-9.01,4.97-12.58,8.6C-32.24-4.39-35.1,0-36.97,4.67c-1.88,4.66-2.84,9.8-2.79,14.86
	c0.06,5.04,1.13,10.14,3.1,14.73c1.96,4.59,4.88,8.87,8.45,12.37c3.55,3.48,7.86,6.3,12.48,8.16c4.45,1.8,9.42,2.75,14.36,2.75
	l0.24,0c4.96-0.05,9.96-1.1,14.48-3.04c4.52-1.93,8.72-4.8,12.15-8.3c3.42-3.49,6.19-7.73,8.01-12.26c1.82-4.49,2.75-9.41,2.7-14.23
	l1.32-0.02c0.04,5.02-0.93,10.11-2.8,14.75c-1.89,4.69-4.76,9.08-8.3,12.69c-3.55,3.62-7.9,6.59-12.58,8.59
	C9.19,57.72,4.01,58.8-1.11,58.87z"/>
<path class="st0" d="M-1.12,56.15c-0.12-0.01-0.27-0.01-0.4-0.01c-4.65,0-9.37-0.91-13.66-2.64c-4.43-1.77-8.59-4.48-12.04-7.85
	c-3.45-3.37-6.27-7.49-8.15-11.91c-1.9-4.44-2.94-9.35-3-14.2c-0.05-4.89,0.87-9.84,2.68-14.33c1.8-4.51,4.56-8.75,7.98-12.26
	c3.42-3.5,7.62-6.38,12.13-8.32c4.53-1.94,9.52-3,14.45-3.06l0.46,0c4.8,0,9.69,0.94,14.14,2.72c4.61,1.84,8.93,4.65,12.48,8.12
	c3.58,3.49,6.51,7.75,8.47,12.33c1.97,4.59,3.05,9.64,3.12,14.61l-1.32,0.02c-0.07-4.82-1.11-9.7-3.01-14.1
	c-1.91-4.44-4.74-8.56-8.18-11.91c-3.45-3.36-7.62-6.07-12.05-7.84C8.69-16.19,4-17.09-0.6-17.09l-0.52,0
	c-4.77,0.06-9.59,1.08-13.95,2.95c-4.35,1.86-8.39,4.64-11.7,8.02c-3.29,3.37-5.95,7.46-7.71,11.83c-1.75,4.36-2.64,9.14-2.58,13.83
	c0.06,4.68,1.06,9.42,2.89,13.69c1.82,4.26,4.54,8.23,7.86,11.48c3.33,3.24,7.34,5.86,11.6,7.57c4.14,1.66,8.65,2.54,13.05,2.54
	l0.51,0c4.6-0.05,9.24-1.03,13.44-2.82c4.18-1.78,8.08-4.45,11.27-7.71c3.17-3.23,5.74-7.17,7.43-11.38
	c1.67-4.17,2.54-8.73,2.5-13.2l1.32-0.02c0.04,4.66-0.86,9.4-2.6,13.71c-1.76,4.37-4.42,8.46-7.72,11.81
	c-3.31,3.38-7.36,6.15-11.7,8C8.47,55.07,3.65,56.09-1.12,56.15z"/>
<path class="st0" d="M-1.52,53.44c-4.29,0-8.66-0.84-12.62-2.43c-4.11-1.64-7.97-4.15-11.16-7.26c-3.19-3.12-5.81-6.93-7.57-11.03
	c-1.76-4.09-2.73-8.64-2.79-13.16c-0.05-4.54,0.8-9.13,2.47-13.29c1.67-4.18,4.23-8.12,7.4-11.39c3.18-3.26,7.07-5.93,11.24-7.73
	c4.18-1.8,8.83-2.79,13.42-2.85l0.52,0c4.41,0,8.92,0.87,13.04,2.52c4.28,1.7,8.29,4.31,11.61,7.53c3.32,3.23,6.04,7.19,7.88,11.46
	c1.83,4.24,2.83,8.93,2.91,13.58L33.5,19.4c-0.08-4.47-1.04-8.99-2.8-13.07c-1.76-4.09-4.38-7.91-7.59-11.03
	c-3.19-3.11-7.05-5.62-11.18-7.26c-3.95-1.58-8.31-2.42-12.59-2.42l-0.46,0c-4.42,0.06-8.88,1.01-12.91,2.74
	c-4.03,1.72-7.77,4.3-10.82,7.43c-3.05,3.13-5.51,6.91-7.12,10.95c-1.61,4-2.43,8.43-2.38,12.79c0.06,4.33,0.99,8.71,2.68,12.66
	c1.69,3.94,4.21,7.6,7.28,10.61c3.05,2.98,6.76,5.39,10.73,6.98c3.81,1.53,7.98,2.34,12.08,2.34l0.45,0
	c4.24-0.05,8.53-0.96,12.4-2.62c3.85-1.65,7.45-4.11,10.39-7.13c2.92-2.99,5.29-6.62,6.84-10.51c1.54-3.84,2.33-8.04,2.3-12.16
	l1.32-0.02c0.04,4.31-0.79,8.68-2.38,12.67c-1.62,4.04-4.09,7.83-7.13,10.94c-3.06,3.13-6.8,5.7-10.82,7.42
	c-4.01,1.73-8.47,2.68-12.9,2.73H-1.52z"/>
<path class="st0" d="M-1.52,50.73c-3.94,0-7.95-0.77-11.59-2.23c-3.79-1.51-7.35-3.82-10.29-6.68c-2.94-2.86-5.36-6.37-6.98-10.16
	c-1.63-3.77-2.52-7.96-2.58-12.12c-0.05-4.19,0.73-8.42,2.27-12.25c1.54-3.87,3.89-7.5,6.81-10.51c2.94-3.03,6.53-5.49,10.37-7.14
	c3.86-1.67,8.14-2.58,12.39-2.65l0.45,0c4.1,0,8.27,0.8,12.06,2.31c3.95,1.57,7.67,3.98,10.74,6.95c3.07,2.98,5.59,6.64,7.3,10.58
	c1.7,3.91,2.63,8.25,2.7,12.54L30.8,19.4c-0.08-4.11-0.97-8.27-2.59-12.04c-1.64-3.8-4.06-7.31-7-10.16
	c-2.95-2.85-6.51-5.16-10.3-6.67c-3.65-1.45-7.63-2.22-11.49-2.22l-0.51,0c-4.07,0.06-8.17,0.94-11.87,2.54
	c-3.7,1.59-7.14,3.96-9.95,6.84c-2.8,2.89-5.06,6.37-6.53,10.08c-1.47,3.69-2.22,7.76-2.17,11.75c0.06,3.98,0.92,8,2.48,11.62
	c1.55,3.61,3.86,6.98,6.69,9.73c2.82,2.74,6.23,4.95,9.86,6.4c3.48,1.4,7.32,2.13,11.11,2.13l0.38,0c3.9-0.06,7.83-0.9,11.37-2.42
	c3.52-1.51,6.82-3.78,9.52-6.54c5.34-5.43,8.45-13.18,8.34-20.76l1.32-0.03c0.11,7.94-3.14,16.04-8.72,21.7
	c-2.81,2.88-6.25,5.24-9.94,6.83c-3.69,1.59-7.79,2.46-11.87,2.52H-1.52z"/>
<path class="st0" d="M-1.64,48.03c-7.34,0-14.58-2.96-19.84-8.11c-5.5-5.28-8.69-12.71-8.77-20.37c-0.15-7.71,2.87-15.31,8.29-20.85
	c5.41-5.63,13.01-8.91,20.84-8.99c0.2,0,0.4-0.01,0.59-0.01c7.67,0,15.23,3.09,20.74,8.48c5.66,5.43,9.09,13.35,9.2,21.21
	l-1.32,0.02c-0.11-7.51-3.39-15.09-8.79-20.28C14.11-5.95,6.68-8.98-0.57-8.98c-0.18,0-0.36,0-0.54,0.01
	c-7.38,0.08-14.82,3.29-19.91,8.59c-5.1,5.21-8.06,12.66-7.92,19.91c0.08,7.2,3.21,14.47,8.38,19.44
	c4.95,4.85,12.04,7.74,18.97,7.74l0.47,0c7.15-0.08,14.06-3.06,18.96-8.17c4.83-4.93,7.65-11.97,7.54-18.84l1.32-0.03
	c0.11,7.33-2.77,14.53-7.92,19.79c-5.16,5.36-12.41,8.48-19.9,8.56C-1.29,48.03-1.46,48.03-1.64,48.03
	C-1.64,48.03-1.64,48.03-1.64,48.03z"/>
<path class="st0" d="M-1.62,45.32c-6.63,0-13.17-2.67-17.95-7.31c-4.98-4.8-7.89-11.53-7.98-18.47c-0.14-7,2.59-13.9,7.5-18.94
	c4.9-5.12,11.8-8.1,18.93-8.19c0.17,0,0.35-0.01,0.52-0.01c7,0,13.89,2.8,18.9,7.68c5.23,5.01,8.29,12.04,8.41,19.3l-1.32,0.02
	c-0.12-6.92-3.03-13.61-8-18.36C12.6-3.61,6.05-6.28-0.58-6.28c-0.17,0-0.35,0-0.52,0.01c-6.78,0.09-13.34,2.93-18,7.8
	c-4.66,4.78-7.26,11.34-7.13,18c0.09,6.6,2.86,12.99,7.59,17.53c4.53,4.42,10.7,6.95,16.93,6.95c0.19,0,0.39,0,0.58-0.01
	c6.43-0.08,12.64-2.77,17.05-7.37c4.4-4.51,6.86-10.68,6.75-16.93l1.32-0.03c0.1,6.62-2.49,13.12-7.13,17.87
	C12.2,42.4,5.65,45.23-1.12,45.32c-0.05,0-0.11,0-0.16,0L-1.62,45.32z"/>
<path class="st0" d="M-1.6,42.61c-5.93,0-11.78-2.38-16.05-6.52c-4.47-4.28-7.1-10.31-7.2-16.54c-0.14-6.28,2.3-12.49,6.7-17.03
	C-13.74-2.1-7.53-4.8-1.13-4.89c0.17,0,0.35-0.01,0.52-0.01c6.28,0,12.47,2.51,16.99,6.89C21.1,6.5,23.87,12.83,24,19.39l-1.32,0.03
	c-0.12-6.2-2.74-12.19-7.21-16.45C11.19-1.19,5.33-3.57-0.61-3.57c-0.16,0-0.32,0-0.49,0c-6.06,0.09-11.93,2.64-16.09,7
	c-4.16,4.29-6.47,10.15-6.33,16.09c0.09,5.88,2.57,11.58,6.79,15.62c4.03,3.91,9.54,6.16,15.12,6.16c0.16,0,0.32,0,0.48-0.01
	c5.71-0.09,11.22-2.49,15.14-6.58c3.89-4.02,6.06-9.48,5.96-15.02l1.32-0.03c0.1,5.89-2.2,11.7-6.33,15.96
	C10.8,39.97,4.95,42.52-1.1,42.61H-1.6z"/>
<path class="st0" d="M-1.57,39.9c-5.22,0-10.37-2.09-14.15-5.73c-3.97-3.79-6.3-9.12-6.4-14.63c-0.13-5.57,2.02-11.08,5.91-15.12
	c3.91-4.1,9.41-6.51,15.1-6.61l0.45,0c5.6,0,11.12,2.23,15.15,6.11c4.21,4.01,6.69,9.64,6.82,15.48l-1.32,0.03
	c-0.12-5.49-2.45-10.78-6.41-14.54C9.78,1.23,4.63-0.86-0.58-0.86c-0.17,0-0.35,0-0.52,0.01c-5.35,0.1-10.52,2.36-14.17,6.2
	c-3.64,3.78-5.66,8.94-5.54,14.18c0.09,5.16,2.28,10.16,6,13.71c3.54,3.41,8.35,5.36,13.21,5.36c0.16,0,0.32,0,0.48-0.01
	c4.98-0.09,9.81-2.2,13.23-5.79c3.38-3.5,5.26-8.27,5.17-13.11l1.32-0.04c0.1,5.18-1.91,10.29-5.54,14.05
	C9.39,37.54,4.24,39.8-1.1,39.9H-1.57z"/>
<path class="st0" d="M-1.55,37.2c-4.52,0-8.99-1.8-12.26-4.93c-3.46-3.28-5.5-7.92-5.61-12.71c-0.12-4.86,1.74-9.67,5.12-13.2
	c3.4-3.59,8.21-5.71,13.19-5.83c0.16,0,0.32-0.01,0.48-0.01c4.86,0,9.67,1.93,13.2,5.31c3.69,3.51,5.89,8.44,6.03,13.56l-1.32,0.03
	c-0.13-4.77-2.17-9.37-5.61-12.63C8.36,3.65,3.87,1.85-0.68,1.85l-0.42,0c-4.63,0.1-9.1,2.07-12.26,5.41
	c-3.13,3.28-4.87,7.74-4.76,12.25c0.1,4.45,2,8.75,5.21,11.79c3.03,2.9,7.16,4.57,11.33,4.57c0.15,0,0.3,0,0.45-0.01
	c4.26-0.1,8.39-1.92,11.32-4.99c2.87-3,4.46-7.07,4.37-11.2l1.32-0.04c0.09,4.48-1.63,8.89-4.73,12.14
	c-3.16,3.33-7.62,5.3-12.24,5.41H-1.55z"/>
<path class="st0" d="M-1.53,34.49c-3.81,0-7.59-1.51-10.37-4.13c-2.95-2.78-4.71-6.71-4.83-10.8c-0.12-4.14,1.45-8.25,4.32-11.28
	C-9.5,5.19-5.39,3.35-1.12,3.24c0.17-0.01,0.34-0.01,0.51-0.01c4.12,0,8.23,1.65,11.26,4.52c3.19,3.01,5.1,7.25,5.23,11.65
	l-1.32,0.04c-0.13-4.05-1.88-7.95-4.82-10.72C6.95,6.07,3.15,4.55-0.67,4.55c-0.14,0-0.28,0-0.42,0.01C-5,4.66-8.77,6.34-11.44,9.18
	c-2.63,2.77-4.08,6.54-3.96,10.34c0.1,3.74,1.71,7.33,4.41,9.87c2.54,2.4,5.99,3.77,9.48,3.77c0.13,0,0.25,0,0.38-0.01
	c3.55-0.1,6.98-1.64,9.41-4.21c2.36-2.5,3.66-5.88,3.58-9.27l1.32-0.04c0.09,3.75-1.34,7.48-3.94,10.23
	c-2.66,2.82-6.42,4.5-10.32,4.63C-1.24,34.49-1.38,34.49-1.53,34.49C-1.53,34.49-1.53,34.49-1.53,34.49z"/>
<path class="st0" d="M-1.53,31.79c-3.13,0-6.13-1.19-8.45-3.34c-2.48-2.32-3.91-5.48-4.03-8.89c-0.12-3.48,1.13-6.81,3.52-9.37
	c2.44-2.61,5.77-4.12,9.37-4.24c0.16-0.01,0.32-0.01,0.48-0.01c3.43,0,6.85,1.35,9.38,3.71c2.69,2.52,4.3,6.06,4.44,9.73l-1.32,0.04
	c-0.13-3.33-1.59-6.53-4.02-8.82c-2.29-2.14-5.4-3.37-8.53-3.37c-0.13,0-0.25,0-0.38,0.01c-3.24,0.11-6.24,1.47-8.44,3.83
	c-2.15,2.3-3.27,5.29-3.17,8.43c0.11,3.07,1.4,5.89,3.62,7.96c2.07,1.92,4.74,2.98,7.52,2.98c0.14,0,0.28,0,0.42-0.01
	c2.89-0.11,5.55-1.33,7.49-3.42c1.87-2.03,2.86-4.64,2.79-7.36l1.32-0.05c0.09,3.08-1.02,6.03-3.14,8.32
	c-2.19,2.35-5.18,3.71-8.41,3.83c-0.16,0.03-0.3,0.03-0.44,0.03C-1.52,31.79-1.53,31.79-1.53,31.79z"/>
<path class="st0" d="M-1.5,29.08c-2.41,0-4.74-0.9-6.55-2.55c-1.97-1.8-3.12-4.28-3.25-6.97c-0.11-2.76,0.86-5.41,2.73-7.47
	c1.92-2.1,4.57-3.32,7.44-3.45c0.15-0.01,0.31-0.01,0.46-0.01c2.77,0,5.43,1.04,7.49,2.93c2.2,2.03,3.5,4.81,3.65,7.82l-1.32,0.05
	c-0.14-2.67-1.28-5.11-3.22-6.9c-1.82-1.66-4.16-2.58-6.61-2.58c-0.13,0-0.26,0-0.39,0.01c-2.52,0.11-4.84,1.19-6.53,3.02
	c-1.63,1.79-2.48,4.1-2.39,6.51c0.11,2.33,1.11,4.48,2.82,6.05c1.57,1.42,3.6,2.2,5.71,2.2c0.11,0,0.21,0,0.32-0.01
	C1.02,27.63,3,26.7,4.45,25.13c1.38-1.53,2.07-3.41,2-5.45l1.32-0.06c0.08,2.36-0.74,4.63-2.34,6.4c-1.68,1.83-3.99,2.92-6.5,3.05
	C-1.24,29.08-1.37,29.08-1.5,29.08z"/>
<path class="st0" d="M-1.5,26.38c-1.72,0-3.32-0.6-4.63-1.73c-1.48-1.33-2.34-3.08-2.47-5.06c-0.11-2.07,0.56-4,1.93-5.56
	c1.45-1.61,3.36-2.53,5.53-2.67c0.15-0.01,0.29-0.01,0.44-0.01c2.08,0,4.02,0.74,5.6,2.13c1.69,1.53,2.7,3.63,2.86,5.91l-1.32,0.07
	c-0.14-1.96-0.97-3.69-2.43-5c-1.33-1.17-2.95-1.79-4.71-1.79c-0.12,0-0.25,0-0.37,0.01c-1.81,0.11-3.4,0.88-4.62,2.23
	c-1.13,1.3-1.68,2.89-1.59,4.6c0.11,1.62,0.81,3.05,2.03,4.15c1.09,0.94,2.35,1.41,3.74,1.41c0.13,0,0.25,0,0.38-0.01
	c1.46-0.11,2.7-0.73,3.67-1.82c0.87-1.01,1.28-2.2,1.21-3.53l1.32-0.09c0.08,1.66-0.45,3.21-1.54,4.49
	c-1.2,1.35-2.78,2.13-4.58,2.27L-1.5,26.38z"/>
<path class="st0" d="M-1.53,23.68c-0.39,0-0.75-0.05-1.12-0.15c-0.54-0.14-1.06-0.41-1.55-0.79c-0.99-0.84-1.54-1.86-1.69-3.12
	c-0.06-0.69,0-1.3,0.18-1.9c0.18-0.62,0.5-1.23,0.94-1.75c0.95-1.11,2.17-1.74,3.61-1.89c0.16-0.01,0.32-0.02,0.48-0.02
	c1.35,0,2.57,0.45,3.64,1.34c1.22,1.06,1.92,2.4,2.08,3.99L3.72,19.5c-0.13-1.24-0.68-2.28-1.62-3.1c-0.83-0.69-1.75-1.02-2.81-1.02
	c-0.12,0-0.24,0-0.36,0.01c-1.08,0.1-1.97,0.57-2.71,1.42c-0.31,0.39-0.55,0.83-0.68,1.28c-0.13,0.42-0.17,0.84-0.14,1.4
	c0.11,0.91,0.49,1.62,1.21,2.24c0.31,0.25,0.68,0.43,1.06,0.54c0.25,0.07,0.49,0.1,0.76,0.1c0.12,0,0.25-0.01,0.38-0.02
	c0.74-0.11,1.28-0.42,1.76-1.01c0.18-0.22,0.32-0.51,0.4-0.82c0.06-0.25,0.07-0.49,0.05-0.78l1.32-0.16
	c0.04,0.44,0.02,0.83-0.07,1.25c-0.12,0.5-0.35,0.96-0.65,1.34c-0.72,0.87-1.55,1.35-2.64,1.5C-1.2,23.67-1.36,23.68-1.53,23.68z"/>
<path class="st0" d="M-1.51,21.06c-0.2,0-0.43-0.05-0.65-0.15c-0.23-0.12-0.43-0.27-0.59-0.43c-0.16-0.18-0.32-0.38-0.42-0.75
	c-0.06-0.34-0.1-0.55-0.07-0.84c0.03-0.3,0.14-0.64,0.32-0.95c0.18-0.27,0.41-0.52,0.7-0.73c0.24-0.17,0.52-0.34,0.99-0.43
	c0.23-0.03,0.42-0.04,0.6-0.04c0.18,0,0.34,0.01,0.51,0.04c0.39,0.07,0.77,0.23,1.13,0.48c0.35,0.24,0.65,0.56,0.87,0.92
	c0.17,0.27,0.35,0.62,0.45,1.15l-1.31,0.2c-0.05-0.27-0.14-0.45-0.26-0.64c-0.12-0.2-0.29-0.38-0.5-0.54
	c-0.21-0.14-0.41-0.23-0.61-0.27c-0.1-0.02-0.19-0.03-0.3-0.03c-0.1,0-0.21,0.01-0.36,0.02c-0.17,0.03-0.28,0.09-0.44,0.2
	c-0.12,0.08-0.24,0.21-0.34,0.35c-0.09,0.14-0.12,0.29-0.13,0.35c-0.01,0.11,0,0.2,0.04,0.43l0,0.03l0.07,0.09
	c0.04,0.04,0.1,0.1,0.16,0.15c-0.03,0.07-0.04,0.15-0.01,0.25c0.06,0.22,0.25,0.39,0.48,0.44l0.27,0.04l-0.05-0.08l0.04-0.04
	l-0.01-1.42c0.36,0.04,0.65,0.31,0.75,0.67c0.13,0.5-0.12,1.05-0.59,1.32l-0.25,0.1c-0.12,0.04-0.2,0.07-0.32,0.09
	C-1.41,21.06-1.46,21.06-1.51,21.06z"/>
</svg>
