<?xml version="1.0" encoding="utf-8"?>
<!-- Generator: Adobe Illustrator 24.1.0, SVG Export Plug-In . SVG Version: 6.00 Build 0)  -->
<svg version="1.1" id="Layer_1" xmlns="http://www.w3.org/2000/svg" xmlns:xlink="http://www.w3.org/1999/xlink" x="0px" y="0px"
	 viewBox="0 0 368 220.26" style="enable-background:new 0 0 368 220.26;" xml:space="preserve">
<style type="text/css">
	.st0{fill:#F8F8F8;}
</style>
<path class="st0" d="M228.95,221.26h16.86c-10.51-25.56-35.16-42.78-64.34-42.78c-28.82,0-53.65,16.49-61.81,42.78h16.31
	c7.25-17.04,24.11-28.28,45.49-28.28C202.13,192.98,219.71,204.22,228.95,221.26z M191.25,108.7c1.09-2.54,1.63-7.43,1.63-9.43
	c0-10.51-7.79-19.94-20.66-19.94c-15.59,0-25.56,13.96-25.56,28.46c0,18.49,14.68,33.17,34.8,33.17c23.56,0,40.06-19.58,40.06-42.96
	c0-24.65-20.84-47.49-49.3-47.49c-31.9,0-55.46,24.29-55.46,56.73c0,37.34,29.18,62.35,64.71,62.35c38.97,0,69.78-30.63,69.78-70.69
	c0-44.41-35.16-77.03-79.03-77.03c-17.22,0-30.27,5.26-37.7,9.43v15.59c8.7-5.08,19.21-10.51,37.7-10.51
	c36.25,0,63.62,27.01,63.62,62.53c0,31.72-23.74,56.19-54.38,56.19c-28.64,0-49.3-20.12-49.3-47.85c0-24.47,16.68-42.23,40.06-42.23
	c18.67,0,33.89,15.04,33.89,32.99c0,16.49-10.69,28.46-24.65,28.46c-11.42,0-19.39-7.79-19.39-18.67c0-7.98,4.71-13.96,10.15-13.96
	c5.62,0,6.34,5.44,6.34,9.43c0,3.44-0.36,6.89-0.73,9.61L191.25,108.7z"/>
</svg>
